<mxfile host="app.diagrams.net" agent="Mozilla/5.0 (Windows NT 10.0; Win64; x64) AppleWebKit/537.36 (KHTML, like Gecko) Chrome/136.0.0.0 Safari/537.36 Edg/136.0.0.0" version="27.0.1">
  <diagram name="Page-1" id="04067xYs8lz1e3Y8mYEK">
    <mxGraphModel dx="1630" dy="901" grid="1" gridSize="10" guides="1" tooltips="1" connect="1" arrows="1" fold="1" page="1" pageScale="1" pageWidth="827" pageHeight="1169" math="0" shadow="0">
      <root>
        <mxCell id="0" />
        <mxCell id="1" parent="0" />
        <UserObject label="&lt;div style=&quot;font-size: 1px&quot;&gt;&lt;p style=&quot;text-align:center;margin-left:0;margin-right:0;margin-top:0px;margin-bottom:0px;text-indent:0;vertical-align:middle;direction:ltr;&quot;&gt;&lt;font style=&quot;font-size:16px;font-family:0;color:#000000;direction:ltr;letter-spacing:0px;line-height:120%;opacity:1&quot;&gt;开始&lt;/font&gt;&lt;/p&gt;&lt;/div&gt;" tags="Background" id="4Odazw_uDd6v9cKihqID-1">
          <mxCell style="verticalAlign=middle;align=center;overflow=width;vsdxID=1;fillColor=#FFFFFF;gradientColor=none;shape=stencil(hZJLEoIwDIZP06VMSQZ0j3gPRop0rJQpD/H2UoMCLQ67JP2S/EnKMGnKrBYMeNMafRdPmbclwzMDkFUpjGxHi2HKMCm0ETejuyonv84saa2H7m2FgfLCOIiPNgv4iyL8410IVrJawCcMEP/D185Q6XCqzaMgiic+XCbwATaQX+wLod8W18ymTH8mB3eFHnydswjwGVjPgn5b3N3lzuJHYz5ZIZWiiy/f3ROPIfoemL4B);strokeColor=#000000;strokeWidth=2;spacingTop=-3;spacingBottom=-3;spacingLeft=-3;spacingRight=-3;points=[];labelBackgroundColor=none;rounded=0;html=1;whiteSpace=wrap;" vertex="1" parent="1">
            <mxGeometry x="388" y="299" width="100" height="50" as="geometry" />
          </mxCell>
        </UserObject>
        <UserObject label="&lt;div style=&quot;font-size: 1px&quot;&gt;&lt;p style=&quot;text-align:center;margin-left:0;margin-right:0;margin-top:0px;margin-bottom:0px;text-indent:0;vertical-align:middle;direction:ltr;&quot;&gt;&lt;font style=&quot;font-size:16px;font-family:0;color:#000000;direction:ltr;letter-spacing:0px;line-height:120%;opacity:1&quot;&gt;输入旧密码&lt;/font&gt;&lt;/p&gt;&lt;/div&gt;" tags="Background" id="4Odazw_uDd6v9cKihqID-2">
          <mxCell style="verticalAlign=middle;align=center;overflow=width;vsdxID=2;fillColor=#FFFFFF;gradientColor=none;shape=stencil(nZBRDoQgDERP03+WHsHFe5iISyOCQdT19kIaIxq//Jtp3zTpAFaTaUYNUkwx+F6v1EYD+AUpyRkdKCYFqACrzgf9C352LfuxyWRWg1/yhT/nRE5IsZWuZtCSK8CPeI0e/hF+jV7AJM4PO7KWCyr390bSiNtEtQM=);strokeColor=#000000;strokeWidth=2;spacingTop=-3;spacingBottom=-3;spacingLeft=-3;spacingRight=-3;points=[];labelBackgroundColor=none;rounded=0;html=1;whiteSpace=wrap;" vertex="1" parent="1">
            <mxGeometry x="388" y="406" width="100" height="70" as="geometry" />
          </mxCell>
        </UserObject>
        <UserObject label="&lt;div style=&quot;font-size: 1px&quot;&gt;&lt;p style=&quot;text-align:center;margin-left:0;margin-right:0;margin-top:0px;margin-bottom:0px;text-indent:0;vertical-align:middle;direction:ltr;&quot;&gt;&lt;font style=&quot;font-size:16px;font-family:0;color:#000000;direction:ltr;letter-spacing:0px;line-height:120%;opacity:1&quot;&gt;旧密码是否正确&lt;/font&gt;&lt;/p&gt;&lt;/div&gt;" tags="Background" id="4Odazw_uDd6v9cKihqID-3">
          <mxCell style="verticalAlign=middle;align=center;overflow=width;vsdxID=3;fillColor=#FFFFFF;gradientColor=none;shape=stencil(nZBdDoMgEIRPs+/IxhNYew8TUTYiGKT+3F7IppE2jTF9m9n9Zh4GsJp1MymQYg7eDWqlNmjAB0hJVitPISrAGrDqnFe9dy/bsp+aRCY1uiU1bJwTKSHFzq5k+2TSkM3I8hO9IAvxd+s7+pO933pFRnGO0ZExvGX+/x4vnnh4rA8=);strokeColor=#000000;strokeWidth=2;spacingTop=-3;spacingBottom=-3;spacingLeft=-3;spacingRight=-3;points=[];labelBackgroundColor=none;rounded=0;html=1;whiteSpace=wrap;" vertex="1" parent="1">
            <mxGeometry x="384" y="533" width="107" height="70" as="geometry" />
          </mxCell>
        </UserObject>
        <UserObject label="&lt;div style=&quot;font-size: 1px&quot;&gt;&lt;p style=&quot;text-align:center;margin-left:0;margin-right:0;margin-top:0px;margin-bottom:0px;text-indent:0;vertical-align:middle;direction:ltr;&quot;&gt;&lt;font style=&quot;font-size:16px;font-family:0;color:#000000;direction:ltr;letter-spacing:0px;line-height:120%;opacity:1&quot;&gt;两次新密码是否一致&lt;/font&gt;&lt;/p&gt;&lt;/div&gt;" tags="Background" id="4Odazw_uDd6v9cKihqID-4">
          <mxCell style="verticalAlign=middle;align=center;overflow=width;vsdxID=4;fillColor=#FFFFFF;gradientColor=none;shape=stencil(nZBdDoMgEIRPs+/IxhNYew8TUTYiGKT+3F7IppE2jTF9m9n9Zh4GsJp1MymQYg7eDWqlNmjAB0hJVitPISrAGrDqnFe9dy/bsp+aRCY1uiU1bJwTKSHFzq5k+2TSkM3I8hO9IAvxd+s7+pO933pFRnGO0ZExvGX+/x4vnnh4rA8=);strokeColor=#000000;strokeWidth=2;spacingTop=-3;spacingBottom=-3;spacingLeft=-3;spacingRight=-3;points=[];labelBackgroundColor=none;rounded=0;html=1;whiteSpace=wrap;" vertex="1" parent="1">
            <mxGeometry x="384" y="660" width="107" height="70" as="geometry" />
          </mxCell>
        </UserObject>
        <UserObject label="&lt;div style=&quot;font-size: 1px&quot;&gt;&lt;p style=&quot;text-align:center;margin-left:0;margin-right:0;margin-top:0px;margin-bottom:0px;text-indent:0;vertical-align:middle;direction:ltr;&quot;&gt;&lt;font style=&quot;font-size:16px;font-family:0;color:#000000;direction:ltr;letter-spacing:0px;line-height:120%;opacity:1&quot;&gt;更新数据库&lt;/font&gt;&lt;/p&gt;&lt;/div&gt;" tags="Background" id="4Odazw_uDd6v9cKihqID-5">
          <mxCell style="verticalAlign=middle;align=center;overflow=width;vsdxID=5;fillColor=#FFFFFF;gradientColor=none;shape=stencil(nZBRDoQgDERP03+WHsHFe5iISyOCQdT19kIaIxq//Jtp3zTpAFaTaUYNUkwx+F6v1EYD+AUpyRkdKCYFqACrzgf9C352LfuxyWRWg1/yhT/nRE5IsZWuZtCSK8CPeI0e/hF+jV7AJM4PO7KWCyr390bSiNtEtQM=);strokeColor=#000000;strokeWidth=2;spacingTop=-3;spacingBottom=-3;spacingLeft=-3;spacingRight=-3;points=[];labelBackgroundColor=none;rounded=0;html=1;whiteSpace=wrap;" vertex="1" parent="1">
            <mxGeometry x="388" y="788" width="100" height="70" as="geometry" />
          </mxCell>
        </UserObject>
        <UserObject label="&lt;div style=&quot;font-size: 1px&quot;&gt;&lt;p style=&quot;text-align:center;margin-left:0;margin-right:0;margin-top:0px;margin-bottom:0px;text-indent:0;vertical-align:middle;direction:ltr;&quot;&gt;&lt;font style=&quot;font-size:16px;font-family:0;color:#000000;direction:ltr;letter-spacing:0px;line-height:120%;opacity:1&quot;&gt;结束&lt;/font&gt;&lt;/p&gt;&lt;/div&gt;" tags="Background" id="4Odazw_uDd6v9cKihqID-6">
          <mxCell style="verticalAlign=middle;align=center;overflow=width;vsdxID=6;fillColor=#FFFFFF;gradientColor=none;shape=stencil(hZJLEoIwDIZP06VMSQZ0j3gPRop0rJQpD/H2UoMCLQ67JP2S/EnKMGnKrBYMeNMafRdPmbclwzMDkFUpjGxHi2HKMCm0ETejuyonv84saa2H7m2FgfLCOIiPNgv4iyL8410IVrJawCcMEP/D185Q6XCqzaMgiic+XCbwATaQX+wLod8W18ymTH8mB3eFHnydswjwGVjPgn5b3N3lzuJHYz5ZIZWiiy/f3ROPIfoemL4B);strokeColor=#000000;strokeWidth=2;spacingTop=-3;spacingBottom=-3;spacingLeft=-3;spacingRight=-3;points=[];labelBackgroundColor=none;rounded=0;html=1;whiteSpace=wrap;" vertex="1" parent="1">
            <mxGeometry x="388" y="915" width="100" height="50" as="geometry" />
          </mxCell>
        </UserObject>
        <UserObject label="&lt;div style=&quot;font-size: 1px&quot;&gt;&lt;p style=&quot;text-align:center;margin-left:0;margin-right:0;margin-top:0px;margin-bottom:0px;text-indent:0;vertical-align:middle;direction:ltr;&quot;&gt;&lt;font style=&quot;font-size:16px;font-family:0;color:#000000;direction:ltr;letter-spacing:0px;line-height:120%;opacity:1&quot;&gt;提示旧密码错误&lt;/font&gt;&lt;/p&gt;&lt;/div&gt;" tags="Background" id="4Odazw_uDd6v9cKihqID-7">
          <mxCell style="verticalAlign=middle;align=center;overflow=width;vsdxID=7;fillColor=#FFFFFF;gradientColor=none;shape=stencil(nZBRDoQgDERP03+WHsHFe5iISyOCQdT19kIaIxq//Jtp3zTpAFaTaUYNUkwx+F6v1EYD+AUpyRkdKCYFqACrzgf9C352LfuxyWRWg1/yhT/nRE5IsZWuZtCSK8CPeI0e/hF+jV7AJM4PO7KWCyr390bSiNtEtQM=);strokeColor=#000000;strokeWidth=2;spacingTop=-3;spacingBottom=-3;spacingLeft=-3;spacingRight=-3;points=[];labelBackgroundColor=none;rounded=0;html=1;whiteSpace=wrap;" vertex="1" parent="1">
            <mxGeometry x="222" y="533" width="100" height="70" as="geometry" />
          </mxCell>
        </UserObject>
        <UserObject label="&lt;div style=&quot;font-size: 1px&quot;&gt;&lt;p style=&quot;text-align:center;margin-left:0;margin-right:0;margin-top:0px;margin-bottom:0px;text-indent:0;vertical-align:middle;direction:ltr;&quot;&gt;&lt;font style=&quot;font-size:16px;font-family:0;color:#000000;direction:ltr;letter-spacing:0px;line-height:120%;opacity:1&quot;&gt;提示两次新密码不一致&lt;/font&gt;&lt;/p&gt;&lt;/div&gt;" tags="Background" id="4Odazw_uDd6v9cKihqID-8">
          <mxCell style="verticalAlign=middle;align=center;overflow=width;vsdxID=8;fillColor=#FFFFFF;gradientColor=none;shape=stencil(nZBRDoQgDERP03+WHsHFe5iISyOCQdT19kIaIxq//Jtp3zTpAFaTaUYNUkwx+F6v1EYD+AUpyRkdKCYFqACrzgf9C352LfuxyWRWg1/yhT/nRE5IsZWuZtCSK8CPeI0e/hF+jV7AJM4PO7KWCyr390bSiNtEtQM=);strokeColor=#000000;strokeWidth=2;spacingTop=-3;spacingBottom=-3;spacingLeft=-3;spacingRight=-3;points=[];labelBackgroundColor=none;rounded=0;html=1;whiteSpace=wrap;" vertex="1" parent="1">
            <mxGeometry x="549" y="660" width="100" height="70" as="geometry" />
          </mxCell>
        </UserObject>
        <UserObject label="" tags="Background" id="4Odazw_uDd6v9cKihqID-9">
          <mxCell style="vsdxID=9;edgeStyle=none;startArrow=none;endArrow=block;startSize=5;endSize=5;strokeWidth=2;spacingTop=0;spacingBottom=0;spacingLeft=0;spacingRight=0;verticalAlign=middle;html=1;labelBackgroundColor=#ffffff;rounded=0;exitX=0.5;exitY=0.98;exitDx=0;exitDy=0;exitPerimeter=0;entryX=0.5;entryY=0;entryDx=0;entryDy=0;entryPerimeter=0;" edge="1" parent="1" source="4Odazw_uDd6v9cKihqID-1" target="4Odazw_uDd6v9cKihqID-2">
            <mxGeometry relative="1" as="geometry">
              <mxPoint y="130" as="offset" />
              <Array as="points">
                <mxPoint x="438" y="376.92" />
                <mxPoint x="438" y="376.92" />
              </Array>
            </mxGeometry>
          </mxCell>
        </UserObject>
        <UserObject label="" tags="Background" id="4Odazw_uDd6v9cKihqID-10">
          <mxCell style="vsdxID=10;edgeStyle=none;startArrow=none;endArrow=block;startSize=5;endSize=5;strokeWidth=2;spacingTop=0;spacingBottom=0;spacingLeft=0;spacingRight=0;verticalAlign=middle;html=1;labelBackgroundColor=#ffffff;rounded=0;exitX=0.5;exitY=1;exitDx=0;exitDy=0;exitPerimeter=0;entryX=0.5046728971962616;entryY=0;entryDx=0;entryDy=0;entryPerimeter=0;" edge="1" parent="1" source="4Odazw_uDd6v9cKihqID-2" target="4Odazw_uDd6v9cKihqID-3">
            <mxGeometry relative="1" as="geometry">
              <mxPoint y="129" as="offset" />
              <Array as="points">
                <mxPoint x="438" y="504.63" />
                <mxPoint x="438" y="504.63" />
              </Array>
            </mxGeometry>
          </mxCell>
        </UserObject>
        <UserObject label="&lt;div style=&quot;font-size: 1px&quot;&gt;&lt;p style=&quot;text-align:center;margin-left:0;margin-right:0;margin-top:0px;margin-bottom:0px;text-indent:0;vertical-align:middle;direction:ltr;&quot;&gt;&lt;font style=&quot;font-size:16px;font-family:0;color:#000000;direction:ltr;letter-spacing:0px;line-height:120%;opacity:1&quot;&gt;是&lt;/font&gt;&lt;/p&gt;&lt;/div&gt;" tags="Background" id="4Odazw_uDd6v9cKihqID-11">
          <mxCell style="vsdxID=11;edgeStyle=none;startArrow=none;endArrow=block;startSize=5;endSize=5;strokeWidth=2;spacingTop=0;spacingBottom=0;spacingLeft=0;spacingRight=0;verticalAlign=middle;html=1;labelBackgroundColor=#ffffff;rounded=0;align=center;exitX=0.5046728971962616;exitY=1;exitDx=0;exitDy=0;exitPerimeter=0;entryX=0.5046728971962616;entryY=0;entryDx=0;entryDy=0;entryPerimeter=0;" edge="1" parent="1" source="4Odazw_uDd6v9cKihqID-3" target="4Odazw_uDd6v9cKihqID-4">
            <mxGeometry relative="1" as="geometry">
              <mxPoint y="-12" as="offset" />
              <Array as="points" />
            </mxGeometry>
          </mxCell>
        </UserObject>
        <UserObject label="&lt;div style=&quot;font-size: 1px&quot;&gt;&lt;p style=&quot;text-align:center;margin-left:0;margin-right:0;margin-top:0px;margin-bottom:0px;text-indent:0;vertical-align:middle;direction:ltr;&quot;&gt;&lt;font style=&quot;font-size:16px;font-family:0;color:#000000;direction:ltr;letter-spacing:0px;line-height:120%;opacity:1&quot;&gt;是&lt;/font&gt;&lt;/p&gt;&lt;/div&gt;" tags="Background" id="4Odazw_uDd6v9cKihqID-12">
          <mxCell style="vsdxID=12;edgeStyle=none;startArrow=none;endArrow=block;startSize=5;endSize=5;strokeWidth=2;spacingTop=0;spacingBottom=0;spacingLeft=0;spacingRight=0;verticalAlign=middle;html=1;labelBackgroundColor=#ffffff;rounded=0;align=center;exitX=0.5046728971962616;exitY=1;exitDx=0;exitDy=0;exitPerimeter=0;entryX=0.5;entryY=0;entryDx=0;entryDy=0;entryPerimeter=0;" edge="1" parent="1" source="4Odazw_uDd6v9cKihqID-4" target="4Odazw_uDd6v9cKihqID-5">
            <mxGeometry relative="1" as="geometry">
              <mxPoint y="-8" as="offset" />
              <Array as="points" />
            </mxGeometry>
          </mxCell>
        </UserObject>
        <UserObject label="" tags="Background" id="4Odazw_uDd6v9cKihqID-13">
          <mxCell style="vsdxID=13;edgeStyle=none;startArrow=none;endArrow=block;startSize=5;endSize=5;strokeWidth=2;spacingTop=0;spacingBottom=0;spacingLeft=0;spacingRight=0;verticalAlign=middle;html=1;labelBackgroundColor=#ffffff;rounded=0;exitX=0.5;exitY=0.9857142857142858;exitDx=0;exitDy=0;exitPerimeter=0;entryX=0.5;entryY=0;entryDx=0;entryDy=0;entryPerimeter=0;" edge="1" parent="1" source="4Odazw_uDd6v9cKihqID-5" target="4Odazw_uDd6v9cKihqID-6">
            <mxGeometry relative="1" as="geometry">
              <mxPoint y="130" as="offset" />
              <Array as="points">
                <mxPoint x="438" y="885.92" />
                <mxPoint x="438" y="885.92" />
              </Array>
            </mxGeometry>
          </mxCell>
        </UserObject>
        <UserObject label="&lt;div style=&quot;font-size: 1px&quot;&gt;&lt;p style=&quot;text-align:center;margin-left:0;margin-right:0;margin-top:0px;margin-bottom:0px;text-indent:0;vertical-align:middle;direction:ltr;&quot;&gt;&lt;font style=&quot;font-size:16px;font-family:0;color:#000000;direction:ltr;letter-spacing:0px;line-height:120%;opacity:1&quot;&gt;否&lt;/font&gt;&lt;/p&gt;&lt;/div&gt;" tags="Background" id="4Odazw_uDd6v9cKihqID-14">
          <mxCell style="vsdxID=14;edgeStyle=none;startArrow=none;endArrow=block;startSize=5;endSize=5;strokeWidth=2;spacingTop=0;spacingBottom=0;spacingLeft=0;spacingRight=0;verticalAlign=middle;html=1;labelBackgroundColor=#ffffff;rounded=0;align=center;exitX=0;exitY=0.5;exitDx=0;exitDy=0;exitPerimeter=0;entryX=1;entryY=0.5;entryDx=0;entryDy=0;entryPerimeter=0;" edge="1" parent="1" source="4Odazw_uDd6v9cKihqID-3" target="4Odazw_uDd6v9cKihqID-7">
            <mxGeometry relative="1" as="geometry">
              <mxPoint x="2" y="-1" as="offset" />
              <Array as="points">
                <mxPoint x="352.75" y="568" />
                <mxPoint x="352.75" y="568" />
              </Array>
            </mxGeometry>
          </mxCell>
        </UserObject>
        <UserObject label="&lt;div style=&quot;font-size: 1px&quot;&gt;&lt;p style=&quot;text-align:center;margin-left:0;margin-right:0;margin-top:0px;margin-bottom:0px;text-indent:0;vertical-align:middle;direction:ltr;&quot;&gt;&lt;font style=&quot;font-size:16px;font-family:0;color:#000000;direction:ltr;letter-spacing:0px;line-height:120%;opacity:1&quot;&gt;否&lt;/font&gt;&lt;/p&gt;&lt;/div&gt;" tags="Background" id="4Odazw_uDd6v9cKihqID-15">
          <mxCell style="vsdxID=15;edgeStyle=none;startArrow=none;endArrow=block;startSize=5;endSize=5;strokeWidth=2;spacingTop=0;spacingBottom=0;spacingLeft=0;spacingRight=0;verticalAlign=middle;html=1;labelBackgroundColor=#ffffff;rounded=0;align=center;exitX=1.0093457943925233;exitY=0.5;exitDx=0;exitDy=0;exitPerimeter=0;entryX=0;entryY=0.5;entryDx=0;entryDy=0;entryPerimeter=0;" edge="1" parent="1" source="4Odazw_uDd6v9cKihqID-4" target="4Odazw_uDd6v9cKihqID-8">
            <mxGeometry relative="1" as="geometry">
              <mxPoint x="-8" y="-1" as="offset" />
              <Array as="points">
                <mxPoint x="520.63" y="695" />
                <mxPoint x="520.63" y="695" />
              </Array>
            </mxGeometry>
          </mxCell>
        </UserObject>
        <UserObject label="" tags="Background" id="4Odazw_uDd6v9cKihqID-16">
          <mxCell style="vsdxID=16;edgeStyle=none;startArrow=none;endArrow=block;startSize=5;endSize=5;strokeWidth=2;spacingTop=0;spacingBottom=0;spacingLeft=0;spacingRight=0;verticalAlign=middle;html=1;labelBackgroundColor=#ffffff;rounded=0;exitX=0.5;exitY=0;exitDx=0;exitDy=0;exitPerimeter=0;entryX=0;entryY=0.5;entryDx=0;entryDy=0;entryPerimeter=0;" edge="1" parent="1" source="4Odazw_uDd6v9cKihqID-7" target="4Odazw_uDd6v9cKihqID-2">
            <mxGeometry relative="1" as="geometry">
              <mxPoint x="-12" y="101" as="offset" />
              <Array as="points">
                <mxPoint x="272" y="440.74" />
              </Array>
            </mxGeometry>
          </mxCell>
        </UserObject>
        <UserObject label="" tags="Background" id="4Odazw_uDd6v9cKihqID-17">
          <mxCell style="vsdxID=17;edgeStyle=none;startArrow=none;endArrow=block;startSize=5;endSize=5;strokeWidth=2;spacingTop=0;spacingBottom=0;spacingLeft=0;spacingRight=0;verticalAlign=middle;html=1;labelBackgroundColor=#ffffff;rounded=0;exitX=0.5;exitY=0;exitDx=0;exitDy=0;exitPerimeter=0;entryX=1;entryY=0.5;entryDx=0;entryDy=0;entryPerimeter=0;" edge="1" parent="1" source="4Odazw_uDd6v9cKihqID-8" target="4Odazw_uDd6v9cKihqID-2">
            <mxGeometry relative="1" as="geometry">
              <mxPoint y="47" as="offset" />
              <Array as="points">
                <mxPoint x="599" y="440.48" />
              </Array>
            </mxGeometry>
          </mxCell>
        </UserObject>
      </root>
    </mxGraphModel>
  </diagram>
</mxfile>
